<svg width="14" height="15" viewBox="0 0 14 15" fill="none" xmlns="http://www.w3.org/2000/svg">
<path fill-rule="evenodd" clip-rule="evenodd" d="M12.97 12.9C12.97 13.5 12.47 14 11.87 14H3.06995C2.46995 14 1.96997 13.5 1.96997 12.9V5C1.96997 4.5 2.46995 4 3.06995 4H11.97C12.57 4 13.0699 4.5 13.0699 5.1V12.9H12.97ZM7.46997 1C8.66997 1 9.57002 1.9 9.77002 3H5.17004C5.37004 1.9 6.26997 1 7.46997 1ZM11.87 3H10.77C10.57 1.3 9.16997 0 7.46997 0C5.76997 0 4.37004 1.3 4.17004 3H3.06995C1.86995 3 0.969971 3.9 0.969971 5.1V13C0.969971 14.1 1.86995 15 3.06995 15H11.97C13.07 15 14.0699 14.1 14.0699 12.9V5C13.9699 3.9 13.07 3 11.87 3Z" fill="white"/>
</svg>
