<svg width="14" height="17" viewBox="0 0 14 17" fill="none" xmlns="http://www.w3.org/2000/svg">
<path d="M13.073 5.52137C12.98 5.59367 11.348 6.51287 11.348 8.55777C11.348 10.9229 13.424 11.7595 13.486 11.7801C13.476 11.8317 13.156 12.9265 12.391 14.0419C11.71 15.0231 10.997 16.0042 9.91299 16.0042C8.82799 16.0042 8.54899 15.3742 7.29999 15.3742C6.08099 15.3742 5.64701 16.0249 4.65601 16.0249C3.66401 16.0249 2.972 15.116 2.177 14.0006C1.258 12.6889 0.514008 10.6543 0.514008 8.72297C0.514008 5.62457 2.52799 3.98237 4.51099 3.98237C5.56499 3.98237 6.442 4.67437 7.103 4.67437C7.733 4.67437 8.71499 3.94107 9.91299 3.94107C10.367 3.94117 11.999 3.98257 13.073 5.52137ZM9.345 2.62957C9.84 2.04087 10.192 1.22497 10.192 0.409067C10.192 0.295467 10.181 0.181867 10.161 0.0888672C9.35501 0.119867 8.39401 0.625968 7.81601 1.29727C7.36201 1.81367 6.93799 2.62957 6.93799 3.45587C6.93799 3.57977 6.95899 3.70377 6.96899 3.74507C7.02099 3.75537 7.103 3.76577 7.186 3.76577C7.909 3.76567 8.818 3.28027 9.345 2.62957Z" fill="white"/>
</svg>
