<svg width="14" height="15" viewBox="0 0 14 15" fill="none" xmlns="http://www.w3.org/2000/svg">
<path d="M13.2 13.3431L9.70001 9.84305C10.58 8.76325 11.0101 7.38595 10.9101 5.99585C10.8001 4.60575 10.1701 3.30905 9.14007 2.37385C8.10007 1.43855 6.75003 0.936251 5.35003 0.970651C3.96003 1.00505 2.63008 1.57355 1.65008 2.55865C0.66008 3.54385 0.0901042 4.87025 0.0501042 6.26385C0.0201042 7.65745 0.520007 9.01165 1.45001 10.0467C2.39001 11.0817 3.68 11.7184 5.07 11.8251C6.46 11.9318 7.8401 11.5004 8.9201 10.6201L12.4201 14.1201C12.4701 14.1712 12.53 14.2117 12.6 14.2394C12.67 14.267 12.7401 14.2812 12.8101 14.2812C12.8801 14.2812 12.9501 14.267 13.0201 14.2394C13.0901 14.2117 13.15 14.1712 13.2 14.1201C13.25 14.069 13.29 14.0084 13.32 13.9416C13.35 13.8749 13.36 13.8034 13.36 13.7311C13.36 13.6589 13.35 13.5873 13.32 13.5206C13.29 13.4538 13.25 13.3932 13.2 13.3421V13.3431ZM1.18011 6.41805C1.18011 5.56385 1.43009 4.72895 1.91009 4.01885C2.38009 3.30875 3.06002 2.75525 3.84002 2.42855C4.63002 2.10185 5.50002 2.01645 6.34002 2.18315C7.18002 2.34995 7.9501 2.76135 8.5501 3.36545C9.1601 3.96945 9.57004 4.73905 9.73004 5.57685C9.90004 6.41465 9.81005 7.28295 9.49005 8.07215C9.16005 8.86125 8.61008 9.53575 7.90008 10.0103C7.19008 10.4848 6.35006 10.7381 5.50006 10.7381C4.35006 10.7371 3.25 10.2815 2.44 9.47155C1.63 8.66155 1.18011 7.56335 1.18011 6.41805Z" fill="white"/>
</svg>
